<svg xmlns="http://www.w3.org/2000/svg" width="14" height="14" viewBox="0 0 14 14"><path d="M12.601 11.187A6.961 6.961 0 0 0 14 7a7 7 0 0 0-7-7 6.961 6.961 0 0 0-4.187 1.399l-.056-.056-.704.705-.005.005-.705.705.056.056A6.956 6.956 0 0 0 0 7a7 7 0 0 0 7 7 6.961 6.961 0 0 0 4.187-1.399l.056.057.705-.705.005-.005.705-.705-.057-.056zM7 2a5 5 0 0 1 5 5 4.964 4.964 0 0 1-.832 2.754L4.246 2.832A4.964 4.964 0 0 1 7 2zm0 10a5 5 0 0 1-5-5c0-1.019.308-1.964.832-2.754l6.922 6.922A4.964 4.964 0 0 1 7 12z"/></svg>