<svg xmlns="http://www.w3.org/2000/svg" width="14" height="14" viewBox="0 0 14 14"><path d="M13.621 5.904l-1.036-.259a.5.5 0 0 1-.355-.332 5.522 5.522 0 0 0-.339-.82.498.498 0 0 1 .017-.486l.549-.915a.498.498 0 0 0-.075-.61l-.862-.863a.5.5 0 0 0-.611-.075l-.916.55a.505.505 0 0 1-.487.015 5.46 5.46 0 0 0-.82-.339.498.498 0 0 1-.332-.354L8.095.379A.5.5 0 0 0 7.609 0H6.391a.5.5 0 0 0-.485.379l-.26 1.036a.499.499 0 0 1-.333.355 5.526 5.526 0 0 0-.82.34.503.503 0 0 1-.486-.017l-.915-.549a.5.5 0 0 0-.61.075l-.863.862a.502.502 0 0 0-.075.612l.549.914a.503.503 0 0 1 .017.486 5.332 5.332 0 0 0-.34.821.503.503 0 0 1-.354.332l-1.037.259A.5.5 0 0 0 0 6.391V7.61a.5.5 0 0 0 .379.485l1.036.26a.497.497 0 0 1 .355.332c.092.284.205.559.34.82a.503.503 0 0 1-.017.486l-.549.915a.5.5 0 0 0 .075.61l.862.862a.498.498 0 0 0 .61.075l.915-.549a.503.503 0 0 1 .486-.017c.262.135.536.248.82.34a.498.498 0 0 1 .332.354l.259 1.036A.502.502 0 0 0 6.39 14h1.22a.5.5 0 0 0 .485-.379l.259-1.036a.5.5 0 0 1 .333-.354c.284-.092.559-.205.82-.34a.503.503 0 0 1 .486.017l.914.549a.5.5 0 0 0 .611-.074l.862-.863a.5.5 0 0 0 .075-.611l-.549-.915a.499.499 0 0 1-.017-.485c.134-.263.248-.536.339-.82a.502.502 0 0 1 .355-.333l1.036-.259A.504.504 0 0 0 14 7.609V6.39a.5.5 0 0 0-.379-.486zM7 10a3 3 0 1 1 0-6 3 3 0 0 1 0 6z"/></svg>