<svg xmlns="http://www.w3.org/2000/svg" width="14" height="14" viewBox="-0.01 0.008 14 14"><path d="M6.939 9.189a17.12 17.12 0 0 1-2.442-2.445c-.544-.673-1.024-1.381-.528-1.878L.487 1.386c-.508.634-1.633 3.654 3.188 8.598 5.08 5.211 8.356 4.097 8.92 3.511l-3.396-3.4c-.474.473-1.086.051-2.26-.906zm6.881 2.33v-.004l-2.649-2.647a.532.532 0 0 0-.754.002l-.962.961 3.403 3.407s.962-.96.961-.961l.002-.001a.53.53 0 0 0-.001-.757zM5.192 3.644v-.002a.533.533 0 0 0 0-.758v-.003L2.465.155a.532.532 0 0 0-.753.001l-.961.965L4.23 4.603c.001.001.962-.958.962-.959z" fill="#fff"/></svg>