<svg xmlns="http://www.w3.org/2000/svg" width="14" height="14" viewBox="0 0 14 14"><path d="M6.949 9.182a17.183 17.183 0 0 1-2.442-2.446c-.544-.673-1.024-1.381-.528-1.878L.497 1.378c-.508.634-1.633 3.654 3.188 8.598 5.08 5.211 8.356 4.097 8.92 3.511l-3.396-3.399c-.475.473-1.086.051-2.26-.906zm6.881 2.33v-.004l-2.649-2.647a.53.53 0 0 0-.754.002l-.962.96 3.402 3.407s.963-.961.961-.961l.002-.002a.528.528 0 0 0 0-.755zM5.202 3.636v-.002a.533.533 0 0 0 0-.758v-.003L2.475.147a.532.532 0 0 0-.753.001l-.961.965L4.24 4.595c.001.001.962-.958.962-.959z"/></svg>