<svg xmlns="http://www.w3.org/2000/svg" width="14" height="14" viewBox="0 0 14 14"><path d="M11.243 2.408a.983.983 0 0 0-1.415 0 1.049 1.049 0 0 0 0 1.455C10.584 4.642 11 5.675 11 6.773s-.416 2.133-1.172 2.91c-1.512 1.558-4.145 1.558-5.656 0A4.15 4.15 0 0 1 3 6.773c0-1.1.416-2.133 1.172-2.91.39-.401.39-1.054 0-1.455a.983.983 0 0 0-1.415 0A6.226 6.226 0 0 0 1 6.773c0 1.647.624 3.199 1.757 4.365A5.88 5.88 0 0 0 7 12.947c1.604 0 3.109-.645 4.243-1.811A6.209 6.209 0 0 0 13 6.773a6.226 6.226 0 0 0-1.757-4.365zM7 8.053c.553 0 1-.445 1-1v-6a1 1 0 1 0-2 0v6a1 1 0 0 0 1 1z" fill="#fff"/></svg>